Coordinates
version=1
nRows=13
nColumns=22
inDegrees=yes

Units are S.I. units (second, meters, Newtons, ...)
If the header above contains a line with 'inDegrees', this indicates whether rotational values are in degrees (yes) or radians (no).

endheader
time	pelvis_tilt	pelvis_list	pelvis_rotation	pelvis_tx	pelvis_ty	pelvis_tz	hip_flexion_r	hip_adduction_r	hip_rotation_r	knee_angle_r	ankle_angle_r	subtalar_angle_r	hip_flexion_l	hip_adduction_l	hip_rotation_l	knee_angle_l	ankle_angle_l	subtalar_angle_l	lumbar_extension	lumbar_bending	lumbar_rotation
      4.03000000	     -8.43507398	     -0.64886148	    -61.34234925	      0.18554261	      0.95574563	      0.91373741	     25.55882666	      3.04654206	    -19.92328541	    -21.38276418	     -2.16402376	     -0.24052499	      0.61548533	    -14.64963939	      5.32656123	    -43.92197132	      4.79294925	      7.91594892	      1.21630108	      8.28687922	    -14.02434138
      4.04000000	     -8.59710046	     -0.62419742	    -61.59102520	      0.18554437	      0.95691641	      0.92079046	     25.06007996	      3.55373591	    -19.80974867	    -21.01957267	     -1.85766958	     -0.28669065	      1.80245530	    -14.73711134	      5.56417289	    -45.72595082	      4.48318224	      7.27149209	      1.25266563	      8.44001723	    -13.90367131
      4.05000000	     -8.77326138	     -0.63257658	    -61.86548387	      0.18547844	      0.95801927	      0.92767672	     24.54417386	      4.09764127	    -19.65514502	    -20.64703464	     -1.58615426	     -0.32448877	      2.94792092	    -14.83411861	      5.81109817	    -47.36237479	      4.43680389	      6.83942976	      1.24993954	      8.61896255	    -13.73449393
      4.06000000	     -8.90174343	     -0.59716562	    -62.07219156	      0.18548970	      0.95901876	      0.93426235	     24.06585212	      4.53485608	    -19.54028048	    -20.29512576	     -1.29420260	     -0.39229238	      4.12078488	    -14.79895483	      6.21645259	    -48.81261600	      4.56426089	      6.16351120	      1.26327122	      8.72124814	    -13.64211131
      4.07000000	     -9.04124840	     -0.62000731	    -62.33083210	      0.18543127	      0.95999848	      0.94074878	     23.54440794	      5.02630543	    -19.37600881	    -19.94085346	     -1.01570804	     -0.43872127	      5.19875630	    -14.79109444	      6.58333556	    -50.05621822	      4.93027607	      5.81963928	      1.21384061	      8.86009378	    -13.45507370
      4.08000000	     -9.15255360	     -0.62317588	    -62.53493800	      0.18543340	      0.96091091	      0.94698634	     23.04084989	      5.44977983	    -19.24813937	    -19.59304641	     -0.74864945	     -0.49713074	      6.27676248	    -14.69242568	      7.07028019	    -51.09694339	      5.43929467	      5.46871688	      1.17070738	      8.95359775	    -13.32520331
      4.09000000	     -9.22473860	     -0.60414160	    -62.70796666	      0.18548285	      0.96177629	      0.95301479	     22.55051359	      5.80624142	    -19.13010290	    -19.24994579	     -0.49150876	     -0.59068495	      7.33172354	    -14.49765435	      7.63582678	    -51.92121342	      6.03241011	      5.12093785	      1.13160820	      8.99036912	    -13.21727976
      4.10000000	     -9.29505301	     -0.62979619	    -62.88823221	      0.18551545	      0.96263263	      0.95891102	     22.02524586	      6.17864935	    -19.00288048	    -18.90813413	     -0.24143409	     -0.64933912	      8.30260807	    -14.30641895	      8.21149903	    -52.53441480	      6.75672604	      4.98902914	      1.04462533	      9.04152495	    -13.08559592
      4.11000000	     -9.34808988	     -0.63568203	    -63.02634994	      0.18558383	      0.96343649	      0.96461961	     21.51648942	      6.50454141	    -18.90271197	    -18.56067316	     -0.00275449	     -0.72606079	      9.26288413	    -14.05591812	      8.85960628	    -52.94837776	      7.51341996	      4.94044690	      0.97631170	      9.05685706	    -12.99756133
      4.12000000	     -9.39619805	     -0.65160626	    -63.14848873	      0.18564469	      0.96419881	      0.97013854	     21.01972399	      6.81445972	    -18.81468914	    -18.23785359	      0.23023279	     -0.80152062	     10.18338334	    -13.78898785	      9.53725075	    -53.17560564	      8.32437907	      4.96465946	      0.89001252	      9.06629587	    -12.91739182
      4.13000000	     -9.43745319	     -0.66792010	    -63.25369863	      0.18570364	      0.96492426	      0.97549740	     20.52981901	      7.10710321	    -18.72715342	    -17.91863142	      0.45504356	     -0.87102777	     11.07271071	    -13.50991189	     10.22681534	    -53.22628598	      9.14486631	      5.03311260	      0.80151475	      9.06325111	    -12.85472728
      4.14000000	     -9.48832147	     -0.68078517	    -63.33926608	      0.18574678	      0.96559830	      0.98070691	     20.05554146	      7.39679790	    -18.64947934	    -17.59628093	      0.66927689	     -0.93553951	     11.94976091	    -13.24252472	     10.92169686	    -53.11892818	      9.95232081	      5.12006271	      0.72477044	      9.05958829	    -12.80671020
      4.15000000	     -9.54313085	     -0.69807454	    -63.42194883	      0.18574764	      0.96622397	      0.98576146	     19.60426609	      7.68333626	    -18.57124013	    -17.30268146	      0.87480243	     -0.98700737	     12.80423886	    -12.99434439	     11.59151619	    -52.87305310	     10.74189150	      5.14145523	      0.63955404	      9.05629864	    -12.75906759
